<?xml version="1.0" encoding="utf-8"?>
<!-- Generator: Adobe Illustrator 16.0.4, SVG Export Plug-In . SVG Version: 6.00 Build 0)  -->
<!DOCTYPE svg PUBLIC "-//W3C//DTD SVG 1.1//EN" "http://www.w3.org/Graphics/SVG/1.1/DTD/svg11.dtd">
<svg version="1.1" id="Layer_1" xmlns="http://www.w3.org/2000/svg" xmlns:xlink="http://www.w3.org/1999/xlink" x="0px" y="0px"
	 width="170px" height="38px" viewBox="0 0 170 38" enable-background="new 0 0 170 38" xml:space="preserve">
<g>
	<path fill="#0D223E" d="M52.925,6.828H60.1l7.976,23.28h-6.927l-1.387-4.436h-7.944l-1.509,4.436h-5.265L52.925,6.828z
		 M53.296,20.87h4.957l-2.342-7.608H55.85L53.296,20.87z"/>
	<path fill="#0D223E" d="M72.417,24.902c1.2,1.694,2.616,2.25,4.679,2.25c1.571,0,2.556-0.588,2.556-1.295
		c0-0.556-0.184-1.018-3.324-1.508c-2.987-0.463-4.528-0.925-5.542-2.033c-0.925-0.986-1.295-2.248-1.295-3.265
		c0-3.14,2.617-5.757,7.023-5.757c2.708,0,5.817,0.646,7.234,3.232l-3.417,2.002c-0.43-1.048-2.278-1.663-3.511-1.663
		c-1.23,0-2.216,0.277-2.216,1.262c0,0.676,0.584,0.893,2.585,1.137c5.204,0.677,7.76,2.311,7.76,5.515
		c0,3.417-2.309,5.759-8.406,5.759c-3.08,0-5.727-0.832-7.543-3.451L72.417,24.902z"/>
	<path fill="#0D223E" d="M89.537,24.902c1.2,1.694,2.618,2.25,4.679,2.25c1.573,0,2.558-0.588,2.558-1.295
		c0-0.556-0.183-1.018-3.326-1.508c-2.987-0.463-4.525-0.925-5.542-2.033c-0.923-0.986-1.292-2.248-1.292-3.265
		c0-3.14,2.616-5.757,7.021-5.757c2.707,0,5.818,0.646,7.232,3.232l-3.417,2.002c-0.43-1.048-2.277-1.663-3.51-1.663
		c-1.231,0-2.217,0.277-2.217,1.262c0,0.676,0.586,0.893,2.588,1.137c5.202,0.677,7.758,2.311,7.758,5.515
		c0,3.417-2.31,5.759-8.405,5.759c-3.08,0-5.729-0.832-7.546-3.451L89.537,24.902z"/>
	<path fill="#0D223E" d="M112.17,30.539c-5.142,0-8.745-3.173-8.745-8.624c0-5.018,3.389-8.621,8.745-8.621
		c4.989,0,8.746,3.357,8.746,8.621C120.916,27.12,117.405,30.539,112.17,30.539 M114.881,21.915c0-3.817-1.018-4.864-2.711-4.864
		s-2.71,1.047-2.71,4.864c0,3.818,1.017,4.866,2.71,4.866S114.881,25.733,114.881,21.915"/>
	<path fill="#0D223E" d="M132.801,19.483c-0.094-1.291-0.522-2.432-2.156-2.432c-1.23,0-2.401,1.046-2.401,4.864
		c0,3.604,0.923,4.866,2.986,4.866c1.879,0,2.587-1.294,3.08-2.772l4.157,0.738c-1.418,3.604-3.818,5.792-7.883,5.792
		c-4.867,0-8.375-3.173-8.375-8.624c0-5.018,3.387-8.621,8.313-8.621c4.002,0,6.526,2.032,7.514,5.851L132.801,19.483z"/>
	<path fill="#0D223E" d="M140.067,6.828h5.788v4.618h-5.788V6.828z M140.067,13.727h5.788v16.38h-5.788V13.727z"/>
	<path fill="#0D223E" d="M148.566,17.852c0.738-3.511,4.064-4.559,7.299-4.559c6.002,0,7.297,2.216,7.297,4.804v8.775
		c0,0.557,0.062,2.4,0.646,3.234h-5.943c-0.124-0.401-0.216-0.955-0.246-1.478c-1.325,1.199-3.17,1.909-4.988,1.909
		c-1.571,0-4.836-0.833-4.836-4.837c0-4.493,5.052-5.82,9.793-5.85v-1.354c0-1.233-0.893-1.632-1.938-1.632
		c-1.416,0-1.94,0.77-2.28,2.001L148.566,17.852 M157.557,22.624c-1.662,0.217-4.156,0.647-4.156,2.586
		c0,1.201,1.169,1.756,1.786,1.756c0.863,0,1.538-0.338,2.37-0.925V22.624z"/>
	<path fill="#0D223E" d="M167.326,14.275c-1.598,0-2.606-0.967-2.606-2.524c0-1.387,1.177-2.523,2.606-2.523
		c1.598,0,2.607,0.968,2.607,2.523C169.934,13.139,168.756,14.275,167.326,14.275 M167.326,9.564c-1.261,0-2.187,0.927-2.187,2.187
		c0,1.347,0.841,2.186,2.187,2.186c1.262,0,2.188-0.922,2.188-2.186C169.514,10.407,168.672,9.564,167.326,9.564 M168.798,13.098
		h-0.252c-0.379,0-0.589-0.083-0.757-0.295c0-0.655-0.168-0.925-0.59-0.925h-0.276l-0.018,0.042v0.757l0.043,0.125l0.168,0.042
		h0.168l0.042,0.042v0.169l-0.042,0.042h-0.252l-0.404-0.042l-0.396,0.042h-0.252l-0.043-0.042v-0.169l0.043-0.042h0.126
		l0.168-0.042l0.043-0.125v-1.935l-0.043-0.125l-0.168-0.042h-0.117l-0.052-0.051v-0.15l0.052-0.051h0.243l0.396,0.042l0.505-0.042
		h0.36c0.589,0,1.01,0.294,1.01,0.715c0,0.336-0.251,0.59-0.673,0.69l0.337,0.168l0.127,0.127l0.168,0.698l0.084,0.083l0.168,0.042
		h0.084l0.042,0.042v0.169L168.798,13.098z M167.284,10.575h-0.21l-0.126,0.068l-0.043,0.099v0.842l0.018,0.042h0.276
		c0.463,0,0.716-0.212,0.716-0.548C167.915,10.785,167.662,10.575,167.284,10.575"/>
	<path fill="#0D223E" d="M17.632,17.636H-0.067V-0.06h17.699V17.636z M19.97,17.669l6.413-17.729H19.97V17.669z M37.685,20.138
		l-6.414,17.73h6.414V20.138z M-0.066,37.838h12.882l4.816-14.322v-3.378H-0.066V37.838z"/>
	<path fill="#F9A21B" d="M26.4-0.059h11.285v17.696H19.987L26.4-0.059z M37.668,20.17H19.97v17.698h11.284L37.668,20.17z
		 M12.803,37.838h4.829V23.521L12.803,37.838z"/>
</g>
</svg>
