<?xml version="1.0" encoding="utf-8"?>
<!-- Generator: Adobe Illustrator 22.1.0, SVG Export Plug-In . SVG Version: 6.00 Build 0)  -->
<svg version="1.1" id="vector" xmlns="http://www.w3.org/2000/svg" xmlns:xlink="http://www.w3.org/1999/xlink" x="0px" y="0px"
	 viewBox="0 0 216 432" style="enable-background:new 0 0 216 432;" xml:space="preserve">
<style type="text/css">
	.st0{fill:#13216A;}
	.st1{fill:#CF152D;}
</style>
<g>
	<g>
		<polygon class="st0" points="82.9,109.7 82.9,0 0,0 0,297.6 82.9,297.6 82.9,186.2 132.7,186.2 132.7,297.6 216,297.6 216,109.7 
			132.7,109.7 		"/>
		<rect x="132.7" class="st1" width="83.3" height="109.7"/>
	</g>
	<g>
		<g>
			<path class="st0" d="M0,338.4h9.6v17.2h17.7v-17.2h9.6V382h-9.6v-17.5H9.6V382H0V338.4z"/>
			<path class="st0" d="M60.4,338.4h8.8L87.7,382h-9.9l-4-9.7H55.5l-4,9.7h-9.7L60.4,338.4z M70.4,363.9l-5.7-14l-5.7,14H70.4z"/>
			<path class="st0" d="M92.7,338.4h10.3l11.5,18.4l11.4-18.4h10.3V382h-9.5v-28.4l-12.3,18.6h-0.2l-12.1-18.4V382h-9.4V338.4z"/>
			<path class="st0" d="M143.9,338.4h32.9v8.5h-23.3v8.8H174v8.5h-20.5v9.1h23.6v8.5h-33.2V338.4z"/>
			<path class="st0" d="M184.7,338.4h9.6v34.8H216v8.7h-31.3V338.4z"/>
		</g>
		<g>
			<path class="st1" d="M0,400.7h14.3c3.5,0,6.3,1,8.1,2.7c1.4,1.4,2.1,3.1,2.1,5.2v0.1c0,3.5-1.9,5.4-4.1,6.7
				c3.6,1.4,5.8,3.4,5.8,7.6v0.1c0,5.6-4.6,8.5-11.5,8.5H0V400.7z M17.8,409.8c0-2-1.6-3.2-4.4-3.2H6.6v6.5h6.3
				C15.9,413.1,17.8,412.2,17.8,409.8L17.8,409.8z M14.4,418.8H6.6v6.8h8.1c3,0,4.8-1.1,4.8-3.3v-0.1
				C19.5,420.1,17.9,418.8,14.4,418.8z"/>
			<path class="st1" d="M30,418.3v-17.6h6.8v17.4c0,5,2.5,7.6,6.7,7.6c4.1,0,6.7-2.5,6.7-7.4v-17.7h6.8v17.4
				c0,9.3-5.2,13.9-13.5,13.9S30,427.4,30,418.3z"/>
			<path class="st1" d="M62.2,400.7H69v30.8h-6.8V400.7z"/>
			<path class="st1" d="M74.4,400.7h6.8v24.7h15.4v6.2H74.4V400.7z"/>
			<path class="st1" d="M101.9,400.7h12c9.7,0,16.4,6.7,16.4,15.3v0.1c0,8.7-6.7,15.4-16.4,15.4h-12V400.7z M108.7,406.8v18.6h5.2
				c5.6,0,9.3-3.7,9.3-9.2v-0.1c0-5.5-3.7-9.3-9.3-9.3H108.7z"/>
			<path class="st1" d="M135,400.7h23.3v6h-16.5v6.3h14.5v6h-14.5v6.5h16.7v6H135V400.7z"/>
			<path class="st1" d="M163.2,400.7h14.1c3.9,0,7,1.1,9,3.1c1.7,1.7,2.6,4.1,2.6,7v0.1c0,5-2.7,8.1-6.6,9.6l7.5,11h-7.9l-6.6-9.9
				H170v9.9h-6.8V400.7z M176.8,415.7c3.3,0,5.2-1.8,5.2-4.4v-0.1c0-2.9-2-4.4-5.3-4.4H170v8.9H176.8z"/>
			<path class="st1" d="M191.6,427l4-4.8c2.8,2.3,5.7,3.7,9.2,3.7c2.8,0,4.4-1.1,4.4-2.9V423c0-1.7-1.1-2.6-6.2-3.9
				c-6.2-1.6-10.2-3.3-10.2-9.4v-0.1c0-5.6,4.5-9.3,10.8-9.3c4.5,0,8.3,1.4,11.5,3.9l-3.5,5.1c-2.7-1.9-5.4-3-8-3s-4,1.2-4,2.7v0.1
				c0,2,1.3,2.7,6.7,4.1c6.3,1.6,9.8,3.9,9.8,9.3v0.1c0,6.1-4.7,9.6-11.3,9.6C200,432,195.3,430.3,191.6,427z"/>
		</g>
	</g>
</g>
</svg>
