<svg id="Layer_1" data-name="Layer 1" xmlns="http://www.w3.org/2000/svg" viewBox="0 0 248 41.68"><defs><style>.cls-1{fill:#c00d1e;}</style></defs><title>Artboard 1</title><path class="cls-1" d="M135.35,7.68a16.76,16.76,0,0,1,1.58,6.21l-10.54,0c-1.42-3.5-5.35-4.37-8.85-4.37-2.29,0-4.89.6-5.69,2.62-.55,2.73,2.32,3.36,4.05,3.94,7.32,1.64,16.18,1.09,20.77,7.54a11.23,11.23,0,0,1-3,12.35c-8.16,7.54-18.73,6.79-28,2.4-4-2.4-7.32-6.45-7.43-11h11.37c-.22,2.41,2.66,3.42,4.15,3.93,2.24.33,7.16,2,9.95-2.08.87-2.19-1.94-3.17-2.67-3.35A74.92,74.92,0,0,1,102,19.7a9.59,9.59,0,0,1-3.39-6.56c-.33-4.48,3.89-8.87,6.66-10.39C113.22-1.13,129-2,135.35,7.68Z"/><path class="cls-1" d="M203.63,14.8V25H186s0,5.14,0,5.14h17.61V41.49s-29.81,0-29.79,0V1.29s29.79,0,29.79,0v9.89H186s0,3.59,0,3.62Z"/><path class="cls-1" d="M170.93,30.12l0,11.39H140.27V1.24c5,0,7.87,0,12.13,0V30.12Z"/><path class="cls-1" d="M83.19,7.93c0-2.29,0-6.67,0-6.69H95.46V41.51H83.66c.33-10.77-.33-20.93-9.4-26.73-1.53-.77-3-1.87-4.73-1.76-.05,2.28,0,21.87,0,28.48H57.21l0-40.14a35.09,35.09,0,0,1,26,6.56Z"/><path class="cls-1" d="M13,1.28l0,12.42c3-.66,6.8-4.34,8.31-6l4.78-6.41H38.24A52.18,52.18,0,0,1,28.43,16.1c5.79,7.43,10.16,15.52,11.26,25.41h-12A37.63,37.63,0,0,0,19,24l-6,2.77,0,14.79H0L0,1.3c5.12,0,9.57,0,13,0Z"/><path class="cls-1" d="M54.39,41.53c-4.63,0-6.7,0-11.6,0l0-40.27h11.6l0,40.29Z"/><path class="cls-1" d="M248,1.25C243.49,19,225,36.32,206.38,41.58V30.13a39.53,39.53,0,0,0,10.36-7,60.28,60.28,0,0,1-11-21.8h12c2.19,4.64,4.6,9.67,8.86,13.93,4.81-4,7.19-9.87,8.33-14Z"/></svg>